<svg width="20" height="27" viewBox="0 0 20 27" fill="none" xmlns="http://www.w3.org/2000/svg">
<path d="M14.9731 2.94667L12.2131 1.82667C11.1331 1.38667 9.89312 1.90667 9.45312 3L8.61312 5.05334C8.17312 6.13334 8.69312 7.37334 9.78645 7.82667L12.8398 9.06667C12.5198 10.6 12.0265 12.4 11.2531 14.3467C10.3865 16.5467 9.38645 18.36 8.47979 19.8133L5.42645 18.5733C4.33312 18.1333 3.09312 18.6533 2.65312 19.7467L1.81312 21.8C1.37312 22.8933 1.89312 24.1333 2.98645 24.5733L5.74645 25.6933L5.79979 25.72C8.77312 26.92 12.1998 25.76 13.7465 22.96C14.7865 21.08 15.8131 18.9733 16.7598 16.6133C17.6131 14.48 18.2798 12.44 18.7865 10.5467C19.6265 7.44 17.9998 4.2 15.0265 2.98667L14.9731 2.94667Z" stroke="#FF9F34" stroke-width="1.6" stroke-miterlimit="10" stroke-linecap="round" stroke-linejoin="round"/>
</svg>
